<svg width="25" height="24" viewBox="0 0 25 24" fill="none" xmlns="http://www.w3.org/2000/svg">
<path fill-rule="evenodd" clip-rule="evenodd" d="M12.4969 0C5.85301 0 0.471802 5.37 0.471802 12C0.471802 17.31 3.91397 21.795 8.69393 23.385C9.29518 23.49 9.52065 23.13 9.52065 22.815C9.52065 22.53 9.50562 21.585 9.50562 20.58C6.48433 21.135 5.7027 19.845 5.4622 19.17C5.32692 18.825 4.7407 17.76 4.22963 17.475C3.80875 17.25 3.2075 16.695 4.2146 16.68C5.16157 16.665 5.83798 17.55 6.06345 17.91C7.14571 19.725 8.87431 19.215 9.56575 18.9C9.67097 18.12 9.98662 17.595 10.3323 17.295C7.65677 16.995 4.86095 15.96 4.86095 11.37C4.86095 10.065 5.32692 8.985 6.09351 8.145C5.97326 7.845 5.55239 6.615 6.21376 4.965C6.21376 4.965 7.22086 4.65 9.52065 6.195C10.4827 5.925 11.5048 5.79 12.5269 5.79C13.549 5.79 14.5712 5.925 15.5332 6.195C17.833 4.635 18.8401 4.965 18.8401 4.965C19.5014 6.615 19.0806 7.845 18.9603 8.145C19.7269 8.985 20.1929 10.05 20.1929 11.37C20.1929 15.975 17.382 16.995 14.7065 17.295C15.1424 17.67 15.5181 18.39 15.5181 19.515C15.5181 21.12 15.5031 22.41 15.5031 22.815C15.5031 23.13 15.7286 23.505 16.3298 23.385C18.717 22.5807 20.7913 21.0497 22.2609 19.0074C23.7304 16.965 24.5212 14.5143 24.5219 12C24.5219 5.37 19.1407 0 12.4969 0Z" fill="black"/>
</svg>
