<svg width="17" height="16" viewBox="0 0 17 16" fill="none" xmlns="http://www.w3.org/2000/svg">
<g clip-path="url(#clip0_709_1935)">
<rect x="0.897705" width="16.0334" height="16" rx="8" fill="#CCC0FF"/>
<path d="M12.1166 9.06667C12.2445 8.72558 12.3094 8.36418 12.3081 8C12.3081 7.19138 11.9863 6.41589 11.4133 5.84411C10.8403 5.27233 10.0632 4.95111 9.25289 4.95111C8.89244 4.95153 8.53498 5.01625 8.19736 5.14222L8.91441 5.88C9.02341 5.8626 9.1336 5.85368 9.24398 5.85333C9.81692 5.85214 10.3671 6.07722 10.7743 6.47942C11.1815 6.88162 11.4127 7.42827 11.4174 8C11.417 8.11015 11.4081 8.22011 11.3907 8.32889L12.1166 9.06667Z" fill="#D885A3"/>
<path d="M16.1695 7.79111C14.6686 5.02222 12.0365 3.34667 9.12373 3.34667C8.33068 3.34853 7.54295 3.47604 6.78998 3.72445L7.50703 4.44445C8.03517 4.30824 8.57824 4.23807 9.12373 4.23556C11.6312 4.23556 13.9115 5.63111 15.2699 7.98222C14.7716 8.85449 14.111 9.62382 13.3236 10.2489L13.956 10.88C14.8673 10.1464 15.6241 9.24009 16.1829 8.21334L16.2987 8L16.1695 7.79111Z" fill="#D885A3"/>
<path d="M3.06668 2.56889L5.05304 4.55111C3.7975 5.35783 2.77135 6.47367 2.0735 7.79111L1.9577 8L2.0735 8.21333C3.5744 10.9822 6.20655 12.6578 9.11929 12.6578C10.2562 12.6575 11.3783 12.4008 12.4017 11.9067L14.6285 14.1289L15.4079 13.4622L3.82827 1.90667L3.06668 2.56889ZM7.40906 6.90222L10.3708 9.85778C10.0361 10.0645 9.65091 10.1752 9.25735 10.1778C8.97139 10.1778 8.68825 10.1214 8.42423 10.0118C8.1602 9.90215 7.9205 9.74152 7.71892 9.53912C7.51734 9.33672 7.35785 9.09653 7.24964 8.83239C7.14143 8.56825 7.08663 8.28536 7.08839 8C7.09341 7.6118 7.20426 7.2323 7.40906 6.90222ZM6.76327 6.25778C6.34659 6.84418 6.15129 7.5588 6.21195 8.2751C6.2726 8.99141 6.5853 9.6632 7.09467 10.1715C7.60405 10.6798 8.27723 10.9919 8.99503 11.0524C9.71284 11.1129 10.4289 10.918 11.0166 10.5022L11.7292 11.2133C10.9042 11.5652 10.0164 11.7466 9.11929 11.7467C6.61184 11.7467 4.33154 10.3511 2.97315 8C3.62505 6.8481 4.5639 5.88364 5.69883 5.2L6.76327 6.25778Z" fill="#D885A3"/>
</g>
<defs>
<clipPath id="clip0_709_1935">
<rect x="0.897705" width="16.0334" height="16" rx="8" fill="white"/>
</clipPath>
</defs>
</svg>
